<?xml version="1.0" encoding="UTF-8" standalone="no"?>
<!-- Created with Inkscape (http://www.inkscape.org/) -->

<svg
   xmlns:osb="http://www.openswatchbook.org/uri/2009/osb"
   xmlns:dc="http://purl.org/dc/elements/1.1/"
   xmlns:cc="http://creativecommons.org/ns#"
   xmlns:rdf="http://www.w3.org/1999/02/22-rdf-syntax-ns#"
   xmlns:svg="http://www.w3.org/2000/svg"
   xmlns="http://www.w3.org/2000/svg"
   xmlns:sodipodi="http://sodipodi.sourceforge.net/DTD/sodipodi-0.dtd"
   xmlns:inkscape="http://www.inkscape.org/namespaces/inkscape"
   id="svg2"
   sodipodi:docname="BottleGaugeSpeed.svg"
   inkscape:export-filename="C:\joanna\Gfx\drawings_vector\admin\thumbs\DigitaLink_Tachometer_1.png"
   viewBox="0 0 740.1 740.1"
   sodipodi:version="0.32"
   inkscape:export-xdpi="24.321177"
   version="1.0"
   inkscape:output_extension="org.inkscape.output.svg.inkscape"
   inkscape:export-ydpi="24.321177"
   inkscape:version="0.92.2 2405546, 2018-03-11">
  <defs
     id="defs4">
    <linearGradient
       id="linearGradient2499"
       y2="313.73"
       gradientUnits="userSpaceOnUse"
       x2="190.15"
       y1="344.84"
       x1="373.64"
       inkscape:collect="always">
      <stop
         id="stop3204"
         style="stop-color:#f20000"
         offset="0" />
      <stop
         id="stop3210"
         style="stop-color:#f0690c"
         offset="0.35" />
      <stop
         id="stop3212"
         style="stop-color:#f8a21a"
         offset="0.675" />
      <stop
         id="stop3206"
         style="stop-color:#f7ff5d"
         offset="1" />
    </linearGradient>
    <linearGradient
       id="linearGradient4606-3-9"
       osb:paint="solid">
      <stop
         style="stop-color:#008000;stop-opacity:1;"
         offset="0"
         id="stop4604-1" />
    </linearGradient>
  </defs>
  <sodipodi:namedview
     id="base"
     bordercolor="#666666"
     inkscape:pageshadow="2"
     guidetolerance="10"
     pagecolor="#ffffff"
     gridtolerance="10000"
     inkscape:window-height="861"
     inkscape:zoom="0.67277218"
     objecttolerance="10"
     inkscape:window-y="37"
     showgrid="false"
     borderopacity="1.0"
     inkscape:current-layer="layer2"
     inkscape:cx="355.69698"
     inkscape:cy="460.16766"
     showguides="true"
     inkscape:guide-bbox="true"
     inkscape:window-x="0"
     inkscape:window-width="1436"
     inkscape:pageopacity="0.0"
     inkscape:document-units="px"
     inkscape:window-maximized="0" />
  <g
     id="layer2"
     inkscape:label="Needle"
     inkscape:groupmode="layer"
     transform="translate(-2.4842 -3.3435)">
    <g
       id="g2606">
      <path
         id="path3851"
         sodipodi:rx="11.820547"
         sodipodi:ry="8.0210857"
         style="fill:#000000"
         sodipodi:type="arc"
         d="m 232.99884,335.39605 a 11.820547,8.0210857 0 0 1 2.03633,-11.24774 11.820547,8.0210857 0 0 1 16.57961,1.35954 11.820547,8.0210857 0 0 1 -1.97072,11.25312 11.820547,8.0210857 0 0 1 -16.58741,-1.31501"
         sodipodi:open="true"
         transform="matrix(.79431 0 0 1.2221 1.5316 134.97)"
         sodipodi:cy="330.46445"
         sodipodi:cx="242.32123"
         sodipodi:end="8.7546931"
         sodipodi:start="2.479422" />
      <g
         id="g3273"
         transform="matrix(3.5553 0 0 3.5553 -677.12 -585.58)">
        <g
           id="g3238">
          <g
             id="g3230"
             transform="translate(1.0008)">
            <g
               id="g3196">
              <path
                 id="path2221"
                 sodipodi:rx="104.08394"
                 sodipodi:ry="104.08394"
                 style="fill:#aeaeae"
                 sodipodi:type="arc"
                 d="M 398.32121,269.73102 A 104.08394,104.08394 0 0 1 294.23727,373.81496 104.08394,104.08394 0 0 1 190.15334,269.73102 104.08394,104.08394 0 0 1 294.23727,165.64708 104.08394,104.08394 0 0 1 398.32121,269.73102 Z"
                 sodipodi:cy="269.73102"
                 sodipodi:cx="294.23727" />
              <path
                 id="path2223"
                 sodipodi:rx="104.08394"
                 sodipodi:ry="104.08394"
                 style="fill:#fdfdfd"
                 sodipodi:type="arc"
                 d="M 398.32121,269.73102 A 104.08394,104.08394 0 0 1 294.23727,373.81496 104.08394,104.08394 0 0 1 190.15334,269.73102 104.08394,104.08394 0 0 1 294.23727,165.64708 104.08394,104.08394 0 0 1 398.32121,269.73102 Z"
                 transform="matrix(.99038 0 0 .99038 2.8292 2.5936)"
                 sodipodi:cy="269.73102"
                 sodipodi:cx="294.23727" />
            </g>
            <path
               id="path3200"
               sodipodi:rx="104.08394"
               sodipodi:ry="104.08394"
               style="fill:url(#linearGradient2499)"
               sodipodi:type="arc"
               d="M 398.32121,269.73102 A 104.08394,104.08394 0 0 1 294.23727,373.81496 104.08394,104.08394 0 0 1 190.15334,269.73102 104.08394,104.08394 0 0 1 294.23727,165.64708 104.08394,104.08394 0 0 1 398.32121,269.73102 Z"
               transform="matrix(.93118 .053072 -.053072 .93118 34.564 1.9459)"
               sodipodi:cy="269.73102"
               sodipodi:cx="294.23727" />
          </g>
          <path
             id="path3216"
             sodipodi:rx="104.08394"
             sodipodi:ry="104.08394"
             style="fill:#fdfdfd"
             sodipodi:type="arc"
             d="M 398.32121,269.73102 A 104.08394,104.08394 0 0 1 294.23727,373.81496 104.08394,104.08394 0 0 1 190.15334,269.73102 104.08394,104.08394 0 0 1 294.23727,165.64708 104.08394,104.08394 0 0 1 398.32121,269.73102 Z"
             transform="matrix(.82079 .046781 -.046781 .82079 64.849 33.074)"
             sodipodi:cy="269.73102"
             sodipodi:cx="294.23727" />
          <path
             id="path3220"
             sodipodi:rx="104.08394"
             sodipodi:ry="104.08394"
             style="stroke:#ffffff;stroke-width:33.489;fill:none"
             sodipodi:type="arc"
             d="M 398.32121,269.73102 A 104.08394,104.08394 0 0 1 298.66605,373.72069"
             sodipodi:open="true"
             transform="matrix(.43016 .88615 -.71431 .47542 355.99 -140.89)"
             sodipodi:cy="269.73102"
             sodipodi:cx="294.23727"
             sodipodi:end="1.5282334"
             sodipodi:start="0" />
        </g>
      </g>
      <path
         id="path3473"
         style="stroke:#000000;stroke-width:8.8669;fill:none"
         d="m96.561 481.11l-49.789 27.83" />
      <path
         id="path3476"
         style="stroke:#000000;stroke-width:8.8669;fill:none"
         d="m364.84 16.401l-0.8 57.03" />
      <path
         id="path3478"
         style="stroke:#000000;stroke-width:8.8669;fill:none"
         d="m75.117 347.44l-56.952-3.09" />
      <path
         id="path3480"
         style="stroke:#000000;stroke-width:8.8669;fill:none"
         d="m112.11 224.16l-48.587-29.87" />
      <path
         id="path3482"
         style="stroke:#000000;stroke-width:8.8669;fill:none"
         d="m214.48 116.15c-28.69-49.299-28.69-49.299-28.69-49.299" />
      <path
         id="path3484"
         style="stroke:#000000;stroke-width:8.8669;fill:none"
         d="m539.87 59.44c-29.01 50.98-29.01 50.98-29.01 50.98" />
      <path
         id="path3486"
         style="stroke:#000000;stroke-width:8.8669;fill:none"
         d="m684.42 202.26l-54.73 27.46" />
      <path
         id="path3488"
         style="stroke:#000000;stroke-width:8.8669;fill:none"
         d="m728.84 400l-65.86-6.16" />
      <path
         id="path3490"
         style="stroke:#000000;stroke-width:8.8669;fill:none"
         d="m675.36 560.48l-56.35-36.85" />
      <path
         id="path3492"
         style="stroke:#000000;stroke-width:8.8669;fill:none"
         d="m552.46 678.27l-34.95-54.4" />
      <path
         id="text3535"
         style="fill:#000000"
         d="m119.06 442.62c1.08 0 1.97-0.34 2.65-1.02 0.74-0.74 1.11-1.65 1.11-2.73 0-2.45-1.25-3.67-3.76-3.67-1.02 0-1.9 0.37-2.64 1.11-0.68 0.68-1.02 1.54-1.02 2.56 0 2.5 1.22 3.75 3.66 3.75m-8.53 51.2c1.08 0 1.96-0.34 2.65-1.02 0.74-0.74 1.11-1.65 1.11-2.73 0-2.45-1.26-3.67-3.76-3.67-1.02 0-1.9 0.37-2.64 1.11-0.69 0.68-1.03 1.53-1.03 2.56 0 2.5 1.23 3.75 3.67 3.75m17.07-51.2c1.08 0 1.96-0.34 2.64-1.02 0.74-0.74 1.11-1.65 1.11-2.73 0-2.45-1.25-3.67-3.75-3.67-1.03 0-1.91 0.37-2.65 1.11-0.68 0.68-1.02 1.54-1.02 2.56 0 2.5 1.22 3.75 3.67 3.75m-8.54 59.73c1.08 0 1.97-0.37 2.65-1.11 0.74-0.68 1.11-1.56 1.11-2.64 0-2.45-1.25-3.67-3.76-3.67-1.02 0-1.9 0.34-2.64 1.02-0.68 0.74-1.02 1.62-1.02 2.65 0 2.5 1.22 3.75 3.66 3.75m-8.53-42.66c1.08 0 1.96-0.34 2.65-1.02 0.74-0.74 1.11-1.65 1.11-2.73 0-2.45-1.26-3.67-3.76-3.67-1.02 0-1.9 0.37-2.64 1.11-0.69 0.68-1.03 1.53-1.03 2.56 0 2.5 1.23 3.75 3.67 3.75m0-8.53c1.08 0 1.96-0.34 2.65-1.03 0.74-0.74 1.11-1.65 1.11-2.73 0-2.44-1.26-3.67-3.76-3.67-1.02 0-1.9 0.37-2.64 1.11-0.69 0.69-1.03 1.54-1.03 2.56 0 2.51 1.23 3.76 3.67 3.76m25.6-8.54c1.08 0 1.96-0.34 2.64-1.02 0.74-0.74 1.11-1.65 1.11-2.73 0-2.45-1.25-3.67-3.75-3.67-1.02 0-1.91 0.37-2.65 1.11-0.68 0.68-1.02 1.54-1.02 2.56 0 2.5 1.22 3.75 3.67 3.75m8.53 51.2c1.08 0 1.96-0.34 2.65-1.02 0.74-0.74 1.11-1.65 1.11-2.73 0-2.45-1.25-3.67-3.76-3.67-1.02 0-1.9 0.37-2.64 1.11-0.69 0.68-1.03 1.53-1.03 2.56 0 2.5 1.23 3.75 3.67 3.75m-8.53 8.53c1.08 0 1.96-0.37 2.64-1.11 0.74-0.68 1.11-1.56 1.11-2.64 0-2.45-1.25-3.67-3.75-3.67-1.02 0-1.91 0.34-2.65 1.02-0.68 0.74-1.02 1.62-1.02 2.65 0 2.5 1.22 3.75 3.67 3.75m8.53-42.66c1.08 0 1.96-0.34 2.65-1.02 0.74-0.74 1.11-1.65 1.11-2.73 0-2.45-1.25-3.67-3.76-3.67-1.02 0-1.9 0.37-2.64 1.11-0.69 0.68-1.03 1.53-1.03 2.56 0 2.5 1.23 3.75 3.67 3.75m0-8.53c1.08 0 1.96-0.34 2.65-1.03 0.74-0.74 1.11-1.65 1.11-2.73 0-2.44-1.25-3.67-3.76-3.67-1.02 0-1.9 0.37-2.64 1.11-0.69 0.69-1.03 1.54-1.03 2.56 0 2.51 1.23 3.76 3.67 3.76m-17.06 51.19c1.08 0 1.96-0.37 2.64-1.11 0.74-0.68 1.11-1.56 1.11-2.64 0-2.45-1.25-3.67-3.75-3.67-1.03 0-1.91 0.34-2.65 1.02-0.68 0.74-1.02 1.62-1.02 2.65 0 2.5 1.22 3.75 3.67 3.75m-17.07-25.6c1.08 0 1.96-0.34 2.65-1.02 0.74-0.74 1.11-1.65 1.11-2.73 0-2.45-1.26-3.67-3.76-3.67-1.02 0-1.9 0.37-2.64 1.11-0.69 0.68-1.03 1.54-1.03 2.56 0 2.5 1.23 3.75 3.67 3.75m0-8.53c1.08 0 1.96-0.34 2.65-1.02 0.74-0.74 1.11-1.65 1.11-2.73 0-2.45-1.26-3.67-3.76-3.67-1.02 0-1.9 0.37-2.64 1.11-0.69 0.68-1.03 1.53-1.03 2.56 0 2.5 1.23 3.75 3.67 3.75m34.13 8.53c1.08 0 1.96-0.34 2.65-1.02 0.74-0.74 1.11-1.65 1.11-2.73 0-2.45-1.25-3.67-3.76-3.67-1.02 0-1.9 0.37-2.64 1.11-0.69 0.68-1.03 1.54-1.03 2.56 0 2.5 1.23 3.75 3.67 3.75m0-8.53c1.08 0 1.96-0.34 2.65-1.02 0.74-0.74 1.11-1.65 1.11-2.73 0-2.45-1.25-3.67-3.76-3.67-1.02 0-1.9 0.37-2.64 1.11-0.69 0.68-1.03 1.53-1.03 2.56 0 2.5 1.23 3.75 3.67 3.75m-34.13 17.07c1.08 0 1.96-0.34 2.65-1.03 0.74-0.74 1.11-1.65 1.11-2.73 0-2.44-1.26-3.67-3.76-3.67-1.02 0-1.9 0.37-2.64 1.11-0.69 0.69-1.03 1.54-1.03 2.56 0 2.51 1.23 3.76 3.67 3.76m34.13 0c1.08 0 1.96-0.34 2.65-1.03 0.74-0.74 1.11-1.65 1.11-2.73 0-2.44-1.25-3.67-3.76-3.67-1.02 0-1.9 0.37-2.64 1.11-0.69 0.69-1.03 1.54-1.03 2.56 0 2.51 1.23 3.76 3.67 3.76" />
      <path
         id="text3539"
         style="fill:#000000"
         d="m94.257 374.39c1.081 0 1.963-0.34 2.645-1.02 0.74-0.74 1.11-1.65 1.11-2.74 0-2.44-1.252-3.66-3.755-3.66-1.024 0-1.906 0.37-2.645 1.1-0.683 0.69-1.024 1.54-1.024 2.56 0 2.51 1.223 3.76 3.669 3.76m0 8.53c1.081 0 1.963-0.37 2.645-1.11 0.74-0.68 1.11-1.56 1.11-2.64 0-2.45-1.252-3.67-3.755-3.67-1.024 0-1.906 0.34-2.645 1.02-0.683 0.74-1.024 1.62-1.024 2.65 0 2.5 1.223 3.75 3.669 3.75m0-17.06c1.081 0 1.963-0.34 2.645-1.03 0.74-0.74 1.11-1.65 1.11-2.73 0-2.44-1.252-3.67-3.755-3.67-1.024 0-1.906 0.37-2.645 1.11-0.683 0.68-1.024 1.54-1.024 2.56 0 2.5 1.223 3.76 3.669 3.76m0-8.54c1.081 0 1.963-0.34 2.645-1.02 0.74-0.74 1.11-1.65 1.11-2.73 0-2.45-1.252-3.67-3.755-3.67-1.024 0-1.906 0.37-2.645 1.11-0.683 0.68-1.024 1.54-1.024 2.56 0 2.5 1.223 3.75 3.669 3.75m0-8.53c1.081 0 1.963-0.34 2.645-1.02 0.74-0.74 1.11-1.65 1.11-2.73 0-2.45-1.252-3.67-3.755-3.67-1.024 0-1.906 0.37-2.645 1.11-0.683 0.68-1.024 1.53-1.024 2.56 0 2.5 1.223 3.75 3.669 3.75m0-8.53c1.081 0 1.963-0.34 2.645-1.03 0.74-0.73 1.11-1.65 1.11-2.73 0-2.44-1.252-3.66-3.755-3.67-1.024 0.01-1.906 0.37-2.645 1.11-0.683 0.69-1.024 1.54-1.024 2.56 0 2.51 1.223 3.76 3.669 3.76m0-8.53c1.081 0 1.963-0.35 2.645-1.03 0.74-0.74 1.11-1.65 1.11-2.73 0-2.44-1.252-3.67-3.755-3.67-1.024 0-1.906 0.37-2.645 1.11-0.683 0.68-1.024 1.54-1.024 2.56 0 2.5 1.223 3.76 3.669 3.76m0-8.54c1.081 0 1.963-0.34 2.645-1.02 0.74-0.74 1.11-1.65 1.11-2.73 0-2.45-1.252-3.67-3.755-3.67-1.024 0-1.906 0.37-2.645 1.11-0.683 0.68-1.024 1.53-1.024 2.56 0 2.5 1.223 3.75 3.669 3.75" />
      <path
         id="text3543"
         style="fill:#000000"
         d="m132.81 210.63c1.08 0 1.96-0.35 2.64-1.03 0.74-0.74 1.11-1.65 1.11-2.73 0-2.45-1.25-3.67-3.75-3.67-1.03 0-1.91 0.37-2.65 1.11-0.68 0.68-1.02 1.54-1.02 2.56 0 2.5 1.22 3.76 3.67 3.76m-8.53 51.19c1.08 0 1.96-0.34 2.64-1.02 0.74-0.74 1.11-1.65 1.11-2.73 0-2.45-1.25-3.67-3.75-3.67-1.03 0-1.91 0.37-2.65 1.11-0.68 0.68-1.02 1.53-1.02 2.56 0 2.5 1.22 3.75 3.67 3.75m17.06-51.19c1.08 0 1.96-0.35 2.65-1.03 0.74-0.74 1.11-1.65 1.11-2.73 0-2.45-1.26-3.67-3.76-3.67-1.02 0-1.9 0.37-2.64 1.11-0.69 0.68-1.03 1.54-1.03 2.56 0 2.5 1.22 3.76 3.67 3.76m-8.53 59.72c1.08 0 1.96-0.37 2.64-1.11 0.74-0.68 1.11-1.56 1.11-2.64 0-2.45-1.25-3.67-3.75-3.67-1.03 0-1.91 0.34-2.65 1.02-0.68 0.74-1.02 1.63-1.02 2.65 0 2.5 1.22 3.75 3.67 3.75m-8.53-51.19c1.08 0 1.96-0.34 2.64-1.03 0.74-0.74 1.11-1.65 1.11-2.73 0-2.44-1.25-3.67-3.75-3.67-1.03 0-1.91 0.37-2.65 1.11-0.68 0.69-1.02 1.54-1.02 2.56 0 2.51 1.22 3.76 3.67 3.76m25.59-8.53c1.08 0 1.97-0.35 2.65-1.03 0.74-0.74 1.11-1.65 1.11-2.73 0-2.45-1.25-3.67-3.76-3.67-1.02 0-1.9 0.37-2.64 1.11-0.68 0.68-1.03 1.54-1.03 2.56 0 2.5 1.23 3.76 3.67 3.76m-25.59 59.72c1.08 0 1.96-0.37 2.64-1.11 0.74-0.68 1.11-1.56 1.11-2.64 0-2.45-1.25-3.67-3.75-3.67-1.03 0-1.91 0.34-2.65 1.02-0.68 0.74-1.02 1.63-1.02 2.65 0 2.5 1.22 3.75 3.67 3.75m25.59 0c1.08 0 1.97-0.37 2.65-1.11 0.74-0.68 1.11-1.56 1.11-2.64 0-2.45-1.25-3.67-3.76-3.67-1.02 0-1.9 0.34-2.64 1.02-0.68 0.74-1.03 1.63-1.03 2.65 0 2.5 1.23 3.75 3.67 3.75m8.54-42.66c1.08 0 1.96-0.34 2.64-1.02 0.74-0.74 1.11-1.65 1.11-2.73 0-2.45-1.25-3.67-3.75-3.67-1.03 0-1.91 0.37-2.65 1.11-0.68 0.68-1.02 1.53-1.02 2.56 0 2.5 1.22 3.75 3.67 3.75m0-8.53c1.08 0 1.96-0.34 2.64-1.03 0.74-0.74 1.11-1.65 1.11-2.73 0-2.44-1.25-3.67-3.75-3.67-1.03 0-1.91 0.37-2.65 1.11-0.68 0.69-1.02 1.54-1.02 2.56 0 2.51 1.22 3.76 3.67 3.76m-17.07 51.19c1.08 0 1.96-0.37 2.65-1.11 0.74-0.68 1.11-1.56 1.11-2.64 0-2.45-1.26-3.67-3.76-3.67-1.02 0-1.9 0.34-2.64 1.02-0.69 0.74-1.03 1.63-1.03 2.65 0 2.5 1.22 3.75 3.67 3.75m-17.06-25.59c1.08 0 1.96-0.35 2.64-1.03 0.74-0.74 1.11-1.65 1.11-2.73 0-2.44-1.25-3.67-3.75-3.67-1.03 0-1.91 0.37-2.65 1.11-0.68 0.68-1.02 1.54-1.02 2.56 0 2.5 1.22 3.76 3.67 3.76m0 8.53c1.08 0 1.96-0.34 2.64-1.03 0.74-0.73 1.11-1.65 1.11-2.73 0-2.44-1.25-3.66-3.75-3.67-1.03 0.01-1.91 0.37-2.65 1.11-0.68 0.69-1.02 1.54-1.02 2.56 0 2.51 1.22 3.76 3.67 3.76m8.53-17.07c1.08 0 1.96-0.34 2.64-1.02 0.74-0.74 1.11-1.65 1.11-2.73 0-2.45-1.25-3.67-3.75-3.67-1.03 0-1.91 0.37-2.65 1.11-0.68 0.68-1.02 1.53-1.02 2.56 0 2.5 1.22 3.75 3.67 3.75m8.53 0c1.08 0 1.96-0.34 2.65-1.02 0.74-0.74 1.11-1.65 1.11-2.73 0-2.45-1.26-3.67-3.76-3.67-1.02 0-1.9 0.37-2.64 1.11-0.69 0.68-1.03 1.53-1.03 2.56 0 2.5 1.22 3.75 3.67 3.75m8.53 0c1.08 0 1.97-0.34 2.65-1.02 0.74-0.74 1.11-1.65 1.11-2.73 0-2.45-1.25-3.67-3.76-3.67-1.02 0-1.9 0.37-2.64 1.11-0.68 0.68-1.03 1.53-1.03 2.56 0 2.5 1.23 3.75 3.67 3.75m8.54 34.13c1.08 0 1.96-0.37 2.64-1.11 0.74-0.68 1.11-1.56 1.11-2.64 0-2.45-1.25-3.67-3.75-3.67-1.03 0-1.91 0.34-2.65 1.02-0.68 0.74-1.02 1.63-1.02 2.65 0 2.5 1.22 3.75 3.67 3.75" />
      <path
         id="text3547"
         style="fill:#000000"
         d="m224.36 126.57c1.08 0 1.97-0.34 2.65-1.02 0.74-0.74 1.11-1.65 1.11-2.73 0-2.45-1.25-3.67-3.76-3.67-1.02 0-1.9 0.37-2.64 1.11-0.68 0.68-1.03 1.54-1.03 2.56 0 2.5 1.23 3.75 3.67 3.75m-8.53 51.2c1.08 0 1.96-0.34 2.65-1.02 0.74-0.74 1.1-1.65 1.1-2.73 0-2.45-1.25-3.67-3.75-3.67-1.02 0-1.91 0.37-2.64 1.11-0.69 0.68-1.03 1.53-1.03 2.56 0 2.5 1.22 3.75 3.67 3.75m17.07-51.2c1.08 0 1.96-0.34 2.64-1.02 0.74-0.74 1.11-1.65 1.11-2.73 0-2.45-1.25-3.67-3.75-3.67-1.03 0-1.91 0.37-2.65 1.11-0.68 0.68-1.02 1.54-1.02 2.56 0 2.5 1.22 3.75 3.67 3.75m-8.54 59.73c1.08 0 1.97-0.37 2.65-1.11 0.74-0.68 1.11-1.56 1.11-2.64 0-2.45-1.25-3.67-3.76-3.67-1.02 0-1.9 0.34-2.64 1.02-0.68 0.74-1.03 1.62-1.03 2.65 0 2.5 1.23 3.75 3.67 3.75m-8.53-51.19c1.08 0 1.96-0.34 2.65-1.03 0.74-0.74 1.1-1.65 1.1-2.73 0-2.44-1.25-3.67-3.75-3.67-1.02 0-1.91 0.37-2.64 1.11-0.69 0.69-1.03 1.54-1.03 2.56 0 2.51 1.22 3.76 3.67 3.76m25.6-8.54c1.08 0 1.96-0.34 2.64-1.02 0.74-0.74 1.11-1.65 1.11-2.73 0-2.45-1.25-3.67-3.75-3.67-1.03 0-1.91 0.37-2.65 1.11-0.68 0.68-1.02 1.54-1.02 2.56 0 2.5 1.22 3.75 3.67 3.75m8.53 51.2c1.08 0 1.96-0.34 2.65-1.02 0.74-0.74 1.11-1.65 1.11-2.73 0-2.45-1.26-3.67-3.76-3.67-1.02 0-1.9 0.37-2.64 1.11-0.69 0.68-1.03 1.53-1.03 2.56 0 2.5 1.23 3.75 3.67 3.75m-8.53 8.53c1.08 0 1.96-0.37 2.64-1.11 0.74-0.68 1.11-1.56 1.11-2.64 0-2.45-1.25-3.67-3.75-3.67-1.03 0-1.91 0.34-2.65 1.02-0.68 0.74-1.02 1.62-1.02 2.65 0 2.5 1.22 3.75 3.67 3.75m8.53-42.66c1.08 0 1.96-0.34 2.65-1.02 0.74-0.74 1.11-1.65 1.11-2.73 0-2.45-1.26-3.67-3.76-3.67-1.02 0-1.9 0.37-2.64 1.11-0.69 0.68-1.03 1.53-1.03 2.56 0 2.5 1.23 3.75 3.67 3.75m0-8.53c1.08 0 1.96-0.34 2.65-1.03 0.74-0.74 1.11-1.65 1.11-2.73 0-2.44-1.26-3.67-3.76-3.67-1.02 0-1.9 0.37-2.64 1.11-0.69 0.69-1.03 1.54-1.03 2.56 0 2.51 1.23 3.76 3.67 3.76m-17.06 51.19c1.08 0 1.96-0.37 2.64-1.11 0.74-0.68 1.11-1.56 1.11-2.64 0-2.45-1.25-3.67-3.75-3.67-1.03 0-1.91 0.34-2.65 1.02-0.68 0.74-1.02 1.62-1.02 2.65 0 2.5 1.22 3.75 3.67 3.75m17.06-25.6c1.08 0 1.96-0.34 2.65-1.02 0.74-0.74 1.11-1.65 1.11-2.73 0-2.45-1.26-3.67-3.76-3.67-1.02 0-1.9 0.37-2.64 1.11-0.69 0.68-1.03 1.54-1.03 2.56 0 2.5 1.23 3.75 3.67 3.75m0 8.54c1.08 0 1.96-0.34 2.65-1.03 0.74-0.74 1.11-1.65 1.11-2.73 0-2.44-1.26-3.67-3.76-3.67-1.02 0-1.9 0.37-2.64 1.11-0.69 0.69-1.03 1.54-1.03 2.56 0 2.51 1.23 3.76 3.67 3.76m-25.6-17.07c1.08 0 1.97-0.34 2.65-1.02 0.74-0.74 1.11-1.65 1.11-2.73 0-2.45-1.25-3.67-3.76-3.67-1.02 0-1.9 0.37-2.64 1.11-0.68 0.68-1.03 1.53-1.03 2.56 0 2.5 1.23 3.75 3.67 3.75m8.54 0c1.08 0 1.96-0.34 2.64-1.02 0.74-0.74 1.11-1.65 1.11-2.73 0-2.45-1.25-3.67-3.75-3.67-1.03 0-1.91 0.37-2.65 1.11-0.68 0.68-1.02 1.53-1.02 2.56 0 2.5 1.22 3.75 3.67 3.75m8.53 0c1.08 0 1.96-0.34 2.64-1.02 0.74-0.74 1.11-1.65 1.11-2.73 0-2.45-1.25-3.67-3.75-3.67-1.03 0-1.91 0.37-2.65 1.11-0.68 0.68-1.02 1.53-1.02 2.56 0 2.5 1.22 3.75 3.67 3.75" />
      <path
         id="text3551"
         style="fill:#000000"
         d="m346.41 90.552c1.08 0.001 1.96-0.341 2.64-1.023 0.74-0.74 1.11-1.65 1.11-2.731 0-2.446-1.25-3.669-3.75-3.669-1.02 0-1.91 0.37-2.65 1.109-0.68 0.683-1.02 1.536-1.02 2.56 0 2.503 1.22 3.755 3.67 3.754m0 17.068c1.08 0 1.96-0.34 2.64-1.03 0.74-0.74 1.11-1.65 1.11-2.73 0-2.44-1.25-3.67-3.75-3.67-1.02 0-1.91 0.37-2.65 1.11-0.68 0.69-1.02 1.54-1.02 2.56 0 2.51 1.22 3.76 3.67 3.76m0-8.535c1.08 0 1.96-0.341 2.64-1.024 0.74-0.739 1.11-1.649 1.11-2.73 0-2.446-1.25-3.669-3.75-3.669-1.02 0-1.91 0.37-2.65 1.109-0.68 0.683-1.02 1.536-1.02 2.56 0 2.503 1.22 3.754 3.67 3.754m34.13-8.533c1.08 0.001 1.96-0.341 2.65-1.023 0.73-0.74 1.1-1.65 1.1-2.731 0-2.446-1.25-3.669-3.75-3.669-1.02 0-1.91 0.37-2.64 1.109-0.69 0.683-1.03 1.536-1.03 2.56 0 2.503 1.22 3.755 3.67 3.754m0 51.198c1.08 0 1.96-0.34 2.65-1.03 0.73-0.73 1.1-1.65 1.1-2.73 0-2.44-1.25-3.66-3.75-3.66-1.02 0-1.91 0.36-2.64 1.1-0.69 0.69-1.03 1.54-1.03 2.56 0 2.51 1.22 3.76 3.67 3.76m0 8.53c1.08 0 1.96-0.37 2.65-1.11 0.73-0.68 1.1-1.56 1.1-2.64 0-2.45-1.25-3.67-3.75-3.67-1.02 0-1.91 0.34-2.64 1.02-0.69 0.74-1.03 1.62-1.03 2.65 0 2.5 1.22 3.75 3.67 3.75m0-42.66c1.08 0 1.96-0.34 2.65-1.03 0.73-0.74 1.1-1.65 1.1-2.73 0-2.44-1.25-3.67-3.75-3.67-1.02 0-1.91 0.37-2.64 1.11-0.69 0.69-1.03 1.54-1.03 2.56 0 2.51 1.22 3.76 3.67 3.76m0-8.535c1.08 0 1.96-0.341 2.65-1.024 0.73-0.739 1.1-1.649 1.1-2.73 0-2.446-1.25-3.669-3.75-3.669-1.02 0-1.91 0.37-2.64 1.109-0.69 0.683-1.03 1.536-1.03 2.56 0 2.503 1.22 3.754 3.67 3.754m0 25.595c1.08 0 1.96-0.34 2.65-1.02 0.73-0.74 1.1-1.65 1.1-2.73 0-2.45-1.25-3.67-3.75-3.67-1.02 0-1.91 0.37-2.64 1.11-0.69 0.68-1.03 1.53-1.03 2.56 0 2.5 1.22 3.75 3.67 3.75m0-8.53c1.08 0 1.96-0.34 2.65-1.02 0.73-0.74 1.1-1.65 1.1-2.73 0-2.45-1.25-3.67-3.75-3.67-1.02 0-1.91 0.37-2.64 1.11-0.69 0.68-1.03 1.53-1.03 2.56 0 2.5 1.22 3.75 3.67 3.75m0 17.07c1.08 0 1.96-0.35 2.65-1.03 0.73-0.74 1.1-1.65 1.1-2.73 0-2.44-1.25-3.67-3.75-3.67-1.02 0-1.91 0.37-2.64 1.11-0.69 0.68-1.03 1.54-1.03 2.56 0 2.5 1.22 3.76 3.67 3.76m-25.6-17.07c1.08 0 1.96-0.34 2.65-1.02 0.74-0.74 1.11-1.65 1.11-2.73 0-2.45-1.25-3.67-3.76-3.67-1.02 0-1.9 0.37-2.64 1.11-0.69 0.68-1.03 1.53-1.03 2.56 0 2.5 1.23 3.75 3.67 3.75m8.53 0c1.09 0 1.97-0.34 2.65-1.02 0.74-0.74 1.11-1.65 1.11-2.73 0-2.45-1.25-3.67-3.76-3.67-1.02 0-1.9 0.37-2.64 1.11-0.68 0.68-1.02 1.53-1.02 2.56 0 2.5 1.22 3.75 3.66 3.75m8.54 0c1.08 0 1.96-0.34 2.64-1.02 0.74-0.74 1.11-1.65 1.11-2.73 0-2.45-1.25-3.67-3.75-3.67-1.03 0-1.91 0.37-2.65 1.11-0.68 0.68-1.02 1.53-1.02 2.56 0 2.5 1.22 3.75 3.67 3.75" />
      <path
         id="text3555"
         style="fill:#000000"
         d="m481.02 126.57c1.08 0 1.96-0.34 2.64-1.02 0.74-0.74 1.11-1.65 1.11-2.73 0-2.45-1.25-3.67-3.75-3.67-1.03 0-1.91 0.37-2.65 1.11-0.68 0.68-1.02 1.54-1.02 2.56 0 2.5 1.22 3.75 3.67 3.75m-8.53 51.2c1.08 0 1.96-0.34 2.64-1.02 0.74-0.74 1.11-1.65 1.11-2.73 0-2.45-1.25-3.67-3.75-3.67-1.03 0-1.91 0.37-2.65 1.11-0.68 0.68-1.02 1.53-1.02 2.56 0 2.5 1.22 3.75 3.67 3.75m17.06-51.2c1.08 0 1.96-0.34 2.65-1.02 0.74-0.74 1.11-1.65 1.11-2.73 0-2.45-1.26-3.67-3.76-3.67-1.02 0-1.9 0.37-2.64 1.11-0.69 0.68-1.03 1.54-1.03 2.56 0 2.5 1.22 3.75 3.67 3.75m-8.53 59.73c1.08 0 1.96-0.37 2.64-1.11 0.74-0.68 1.11-1.56 1.11-2.64 0-2.45-1.25-3.67-3.75-3.67-1.03 0-1.91 0.34-2.65 1.02-0.68 0.74-1.02 1.62-1.02 2.65 0 2.5 1.22 3.75 3.67 3.75m-8.53-42.66c1.08 0 1.96-0.34 2.64-1.02 0.74-0.74 1.11-1.65 1.11-2.73 0-2.45-1.25-3.67-3.75-3.67-1.03 0-1.91 0.37-2.65 1.11-0.68 0.68-1.02 1.53-1.02 2.56 0 2.5 1.22 3.75 3.67 3.75m0-8.53c1.08 0 1.96-0.34 2.64-1.03 0.74-0.74 1.11-1.65 1.11-2.73 0-2.44-1.25-3.67-3.75-3.67-1.03 0-1.91 0.37-2.65 1.11-0.68 0.69-1.02 1.54-1.02 2.56 0 2.51 1.22 3.76 3.67 3.76m25.59-8.54c1.08 0 1.97-0.34 2.65-1.02 0.74-0.74 1.11-1.65 1.11-2.73 0-2.45-1.25-3.67-3.76-3.67-1.02 0-1.9 0.37-2.64 1.11-0.68 0.68-1.03 1.54-1.03 2.56 0 2.5 1.23 3.75 3.67 3.75m8.54 51.2c1.08 0 1.96-0.34 2.64-1.02 0.74-0.74 1.11-1.65 1.11-2.73 0-2.45-1.25-3.67-3.75-3.67-1.03 0-1.91 0.37-2.65 1.11-0.68 0.68-1.02 1.53-1.02 2.56 0 2.5 1.22 3.75 3.67 3.75m-8.54 8.53c1.08 0 1.97-0.37 2.65-1.11 0.74-0.68 1.11-1.56 1.11-2.64 0-2.45-1.25-3.67-3.76-3.67-1.02 0-1.9 0.34-2.64 1.02-0.68 0.74-1.03 1.62-1.03 2.65 0 2.5 1.23 3.75 3.67 3.75m-25.59-59.73c1.08 0 1.96-0.34 2.64-1.02 0.74-0.74 1.11-1.65 1.11-2.73 0-2.45-1.25-3.67-3.75-3.67-1.03 0-1.91 0.37-2.65 1.11-0.68 0.68-1.02 1.54-1.02 2.56 0 2.5 1.22 3.75 3.67 3.75m34.13 0c1.08 0 1.96-0.34 2.64-1.02 0.74-0.74 1.11-1.65 1.11-2.73 0-2.45-1.25-3.67-3.75-3.67-1.03 0-1.91 0.37-2.65 1.11-0.68 0.68-1.02 1.54-1.02 2.56 0 2.5 1.22 3.75 3.67 3.75m-17.07 59.73c1.08 0 1.96-0.37 2.65-1.11 0.74-0.68 1.11-1.56 1.11-2.64 0-2.45-1.26-3.67-3.76-3.67-1.02 0-1.9 0.34-2.64 1.02-0.69 0.74-1.03 1.62-1.03 2.65 0 2.5 1.22 3.75 3.67 3.75m-17.06-34.13c1.08 0 1.96-0.34 2.64-1.02 0.74-0.74 1.11-1.65 1.11-2.73 0-2.45-1.25-3.67-3.75-3.67-1.03 0-1.91 0.37-2.65 1.11-0.68 0.68-1.02 1.53-1.02 2.56 0 2.5 1.22 3.75 3.67 3.75m34.13 8.53c1.08 0 1.96-0.34 2.64-1.02 0.74-0.74 1.11-1.65 1.11-2.73 0-2.45-1.25-3.67-3.75-3.67-1.03 0-1.91 0.37-2.65 1.11-0.68 0.68-1.02 1.54-1.02 2.56 0 2.5 1.22 3.75 3.67 3.75m0 8.54c1.08 0 1.96-0.34 2.64-1.03 0.74-0.74 1.11-1.65 1.11-2.73 0-2.44-1.25-3.67-3.75-3.67-1.03 0-1.91 0.37-2.65 1.11-0.68 0.69-1.02 1.54-1.02 2.56 0 2.51 1.22 3.76 3.67 3.76m-25.6-17.07c1.08 0 1.96-0.34 2.64-1.02 0.74-0.74 1.11-1.65 1.11-2.73 0-2.45-1.25-3.67-3.75-3.67-1.03 0-1.91 0.37-2.65 1.11-0.68 0.68-1.02 1.53-1.02 2.56 0 2.5 1.22 3.75 3.67 3.75m8.53 0c1.08 0 1.96-0.34 2.65-1.02 0.74-0.74 1.11-1.65 1.11-2.73 0-2.45-1.26-3.67-3.76-3.67-1.02 0-1.9 0.37-2.64 1.11-0.69 0.68-1.03 1.53-1.03 2.56 0 2.5 1.22 3.75 3.67 3.75m8.53 0c1.08 0 1.97-0.34 2.65-1.02 0.74-0.74 1.11-1.65 1.11-2.73 0-2.45-1.25-3.67-3.76-3.67-1.02 0-1.9 0.37-2.64 1.11-0.68 0.68-1.03 1.53-1.03 2.56 0 2.5 1.23 3.75 3.67 3.75" />
      <path
         id="text3559"
         style="fill:#000000"
         d="m589.08 215.13c1.08 0 1.97-0.34 2.65-1.03 0.74-0.74 1.11-1.65 1.11-2.73 0-2.44-1.25-3.67-3.76-3.67-1.02 0-1.9 0.37-2.64 1.11-0.68 0.69-1.03 1.54-1.03 2.56 0 2.51 1.23 3.76 3.67 3.76m-8.53 51.19c1.08 0 1.96-0.34 2.65-1.02 0.74-0.74 1.11-1.65 1.11-2.73 0-2.45-1.26-3.67-3.76-3.67-1.02 0-1.9 0.37-2.64 1.11-0.69 0.68-1.03 1.54-1.03 2.56 0 2.5 1.23 3.75 3.67 3.75m17.07-51.19c1.08 0 1.96-0.34 2.64-1.03 0.74-0.74 1.11-1.65 1.11-2.73 0-2.44-1.25-3.67-3.75-3.67-1.03 0-1.91 0.37-2.65 1.11-0.68 0.69-1.02 1.54-1.02 2.56 0 2.51 1.22 3.76 3.67 3.76m-8.54 59.73c1.08 0 1.97-0.37 2.65-1.11 0.74-0.69 1.11-1.57 1.11-2.65 0-2.44-1.25-3.67-3.76-3.67-1.02 0-1.9 0.34-2.64 1.03-0.68 0.74-1.03 1.62-1.03 2.64 0 2.51 1.23 3.76 3.67 3.76m-8.53-42.67c1.08 0 1.96-0.34 2.65-1.02 0.74-0.74 1.11-1.65 1.11-2.73 0-2.45-1.26-3.67-3.76-3.67-1.02 0-1.9 0.37-2.64 1.11-0.69 0.68-1.03 1.53-1.03 2.56 0 2.5 1.23 3.75 3.67 3.75m0-8.53c1.08 0 1.96-0.34 2.65-1.02 0.74-0.74 1.11-1.65 1.11-2.73 0-2.45-1.26-3.67-3.76-3.67-1.02 0-1.9 0.37-2.64 1.11-0.69 0.68-1.03 1.53-1.03 2.56 0 2.5 1.23 3.75 3.67 3.75m25.6-8.53c1.08 0 1.96-0.34 2.64-1.03 0.74-0.74 1.11-1.65 1.11-2.73 0-2.44-1.25-3.67-3.75-3.67-1.02 0-1.91 0.37-2.65 1.11-0.68 0.69-1.02 1.54-1.02 2.56 0 2.51 1.22 3.76 3.67 3.76m8.53 51.19c1.08 0 1.96-0.34 2.65-1.02 0.74-0.74 1.11-1.65 1.11-2.73 0-2.45-1.26-3.67-3.76-3.67-1.02 0-1.9 0.37-2.64 1.11-0.69 0.68-1.03 1.54-1.03 2.56 0 2.5 1.23 3.75 3.67 3.75m-8.53 8.54c1.08 0 1.96-0.37 2.64-1.11 0.74-0.69 1.11-1.57 1.11-2.65 0-2.44-1.25-3.67-3.75-3.67-1.02 0-1.91 0.34-2.65 1.03-0.68 0.74-1.02 1.62-1.02 2.64 0 2.51 1.22 3.76 3.67 3.76m8.53-51.2c1.08 0 1.96-0.34 2.65-1.02 0.74-0.74 1.11-1.65 1.11-2.73 0-2.45-1.26-3.67-3.76-3.67-1.02 0-1.9 0.37-2.64 1.11-0.69 0.68-1.03 1.53-1.03 2.56 0 2.5 1.23 3.75 3.67 3.75m-17.06 51.2c1.08 0 1.96-0.37 2.64-1.11 0.74-0.69 1.11-1.57 1.11-2.65 0-2.44-1.25-3.67-3.75-3.67-1.03 0-1.91 0.34-2.65 1.03-0.68 0.74-1.02 1.62-1.02 2.64 0 2.51 1.22 3.76 3.67 3.76m-17.07-25.6c1.08 0 1.96-0.34 2.65-1.03 0.74-0.73 1.11-1.65 1.11-2.73 0-2.44-1.26-3.66-3.76-3.66-1.02 0-1.9 0.36-2.64 1.1-0.69 0.69-1.03 1.54-1.03 2.56 0 2.51 1.23 3.76 3.67 3.76m0-8.53c1.08 0 1.96-0.35 2.65-1.03 0.74-0.74 1.11-1.65 1.11-2.73 0-2.44-1.26-3.67-3.76-3.67-1.02 0-1.9 0.37-2.64 1.11-0.69 0.68-1.03 1.54-1.03 2.56 0 2.5 1.23 3.76 3.67 3.76m34.13 8.53c1.08 0 1.96-0.34 2.65-1.03 0.74-0.73 1.11-1.65 1.11-2.73 0-2.44-1.26-3.66-3.76-3.66-1.02 0-1.9 0.36-2.64 1.1-0.69 0.69-1.03 1.54-1.03 2.56 0 2.51 1.23 3.76 3.67 3.76m-34.13 8.53c1.08 0 1.96-0.34 2.65-1.02 0.74-0.74 1.11-1.65 1.11-2.73 0-2.45-1.26-3.67-3.76-3.67-1.02 0-1.9 0.37-2.64 1.11-0.69 0.68-1.03 1.53-1.03 2.56 0 2.5 1.23 3.75 3.67 3.75m34.13 0c1.08 0 1.96-0.34 2.65-1.02 0.74-0.74 1.11-1.65 1.11-2.73 0-2.45-1.26-3.67-3.76-3.67-1.02 0-1.9 0.37-2.64 1.11-0.69 0.68-1.03 1.53-1.03 2.56 0 2.5 1.23 3.75 3.67 3.75m-25.6-17.06c1.08 0 1.97-0.35 2.65-1.03 0.74-0.74 1.11-1.65 1.11-2.73 0-2.44-1.25-3.67-3.76-3.67-1.02 0-1.9 0.37-2.64 1.11-0.68 0.68-1.03 1.54-1.03 2.56 0 2.5 1.23 3.76 3.67 3.76m8.54 0c1.08 0 1.96-0.35 2.64-1.03 0.74-0.74 1.11-1.65 1.11-2.73 0-2.44-1.25-3.67-3.75-3.67-1.03 0-1.91 0.37-2.65 1.11-0.68 0.68-1.02 1.54-1.02 2.56 0 2.5 1.22 3.76 3.67 3.76m8.53 0c1.08 0 1.96-0.35 2.64-1.03 0.74-0.74 1.11-1.65 1.11-2.73 0-2.44-1.25-3.67-3.75-3.67-1.02 0-1.91 0.37-2.65 1.11-0.68 0.68-1.02 1.54-1.02 2.56 0 2.5 1.22 3.76 3.67 3.76" />
      <path
         id="text3563"
         style="fill:#000000"
         d="m628.11 365.22c1.08 0 1.96-0.34 2.64-1.03 0.74-0.73 1.11-1.65 1.11-2.73 0-2.44-1.25-3.66-3.75-3.66-1.03 0-1.91 0.36-2.65 1.1-0.68 0.69-1.02 1.54-1.02 2.56 0 2.51 1.22 3.76 3.67 3.76m8.53 0c1.08 0 1.96-0.34 2.64-1.03 0.74-0.73 1.11-1.65 1.11-2.73 0-2.44-1.25-3.66-3.75-3.66-1.02 0-1.91 0.36-2.65 1.1-0.68 0.69-1.02 1.54-1.02 2.56 0 2.51 1.22 3.76 3.67 3.76m-17.07 0c1.09 0 1.97-0.34 2.65-1.03 0.74-0.73 1.11-1.65 1.11-2.73 0-2.44-1.25-3.66-3.76-3.66-1.02 0-1.9 0.36-2.64 1.1-0.68 0.69-1.02 1.54-1.02 2.56 0 2.51 1.22 3.76 3.66 3.76m25.6 0c1.08 0 1.97-0.34 2.65-1.03 0.74-0.73 1.11-1.65 1.11-2.73 0-2.44-1.25-3.66-3.76-3.66-1.02 0-1.9 0.36-2.64 1.1-0.69 0.69-1.03 1.54-1.03 2.56 0 2.51 1.23 3.76 3.67 3.76m-8.53 51.19c1.08 0 1.96-0.34 2.64-1.02 0.74-0.74 1.11-1.65 1.11-2.73 0-2.45-1.25-3.67-3.75-3.67-1.02 0-1.91 0.37-2.65 1.11-0.68 0.68-1.02 1.54-1.02 2.56 0 2.5 1.22 3.75 3.67 3.75m0 8.54c1.08 0 1.96-0.37 2.64-1.11 0.74-0.68 1.11-1.57 1.11-2.65 0-2.44-1.25-3.67-3.75-3.67-1.02 0-1.91 0.35-2.65 1.03-0.68 0.74-1.02 1.62-1.02 2.64 0 2.51 1.22 3.76 3.67 3.76m8.53-42.67c1.08 0 1.97-0.34 2.65-1.02 0.74-0.74 1.11-1.65 1.11-2.73 0-2.45-1.25-3.67-3.76-3.67-1.02 0-1.9 0.37-2.64 1.11-0.69 0.68-1.03 1.54-1.03 2.56 0 2.5 1.23 3.75 3.67 3.75m8.54-8.53c1.08 0 1.96-0.34 2.64-1.02 0.74-0.74 1.11-1.65 1.11-2.73 0-2.45-1.25-3.67-3.75-3.67-1.03 0-1.91 0.37-2.65 1.11-0.68 0.68-1.02 1.53-1.02 2.56 0 2.5 1.22 3.75 3.67 3.75m-8.54 25.6c1.08 0 1.97-0.34 2.65-1.02 0.74-0.74 1.11-1.65 1.11-2.74 0-2.44-1.25-3.66-3.76-3.66-1.02 0-1.9 0.37-2.64 1.11-0.69 0.68-1.03 1.53-1.03 2.55 0 2.51 1.23 3.76 3.67 3.76m0-8.53c1.08 0 1.97-0.34 2.65-1.03 0.74-0.74 1.11-1.65 1.11-2.73 0-2.44-1.25-3.67-3.76-3.67-1.02 0-1.9 0.37-2.64 1.11-0.69 0.69-1.03 1.54-1.03 2.56 0 2.51 1.23 3.76 3.67 3.76m-8.53 17.06c1.08 0 1.96-0.34 2.64-1.02 0.74-0.74 1.11-1.65 1.11-2.73 0-2.45-1.25-3.67-3.75-3.67-1.02 0-1.91 0.37-2.65 1.11-0.68 0.68-1.02 1.53-1.02 2.56 0 2.5 1.22 3.75 3.67 3.75m17.07-42.66c1.08 0 1.96-0.34 2.64-1.03 0.74-0.73 1.11-1.65 1.11-2.73 0-2.44-1.25-3.66-3.75-3.66-1.03 0-1.91 0.36-2.65 1.1-0.68 0.69-1.02 1.54-1.02 2.56 0 2.51 1.22 3.76 3.67 3.76" />
      <path
         id="text3567"
         style="fill:#000000"
         d="m575.58 477.79c1.08 0 1.96-0.34 2.64-1.03 0.74-0.74 1.11-1.65 1.11-2.73 0-2.44-1.25-3.67-3.75-3.67-1.03 0-1.91 0.37-2.65 1.11-0.68 0.68-1.02 1.54-1.02 2.56 0 2.5 1.22 3.76 3.67 3.76m-8.54 51.19c1.08 0 1.97-0.34 2.65-1.02 0.74-0.74 1.11-1.65 1.11-2.73 0-2.45-1.25-3.67-3.76-3.67-1.02 0-1.9 0.37-2.64 1.11-0.68 0.68-1.03 1.53-1.03 2.56 0 2.5 1.23 3.75 3.67 3.75m17.07-51.19c1.08 0 1.96-0.34 2.64-1.03 0.74-0.74 1.11-1.65 1.11-2.73 0-2.44-1.25-3.67-3.75-3.67-1.03 0-1.91 0.37-2.65 1.11-0.68 0.68-1.02 1.54-1.02 2.56 0 2.5 1.22 3.76 3.67 3.76m-8.53 59.73c1.08 0 1.96-0.37 2.64-1.11 0.74-0.69 1.11-1.57 1.11-2.65 0-2.45-1.25-3.67-3.75-3.67-1.03 0-1.91 0.34-2.65 1.03-0.68 0.74-1.02 1.62-1.02 2.64 0 2.5 1.22 3.76 3.67 3.76m-8.54-42.67c1.08 0 1.97-0.34 2.65-1.02 0.74-0.74 1.11-1.65 1.11-2.73 0-2.45-1.25-3.67-3.76-3.67-1.02 0-1.9 0.37-2.64 1.11-0.68 0.68-1.03 1.53-1.03 2.56 0 2.5 1.23 3.75 3.67 3.75m0-8.53c1.08 0 1.97-0.34 2.65-1.02 0.74-0.74 1.11-1.65 1.11-2.74 0-2.44-1.25-3.66-3.76-3.66-1.02 0-1.9 0.37-2.64 1.1-0.68 0.69-1.03 1.54-1.03 2.56 0 2.51 1.23 3.76 3.67 3.76m25.6-8.53c1.08 0 1.96-0.34 2.65-1.03 0.74-0.74 1.11-1.65 1.11-2.73 0-2.44-1.26-3.67-3.76-3.67-1.02 0-1.9 0.37-2.64 1.11-0.69 0.68-1.03 1.54-1.03 2.56 0 2.5 1.22 3.76 3.67 3.76m8.53 51.19c1.08 0 1.97-0.34 2.65-1.02 0.74-0.74 1.11-1.65 1.11-2.73 0-2.45-1.25-3.67-3.76-3.67-1.02 0-1.9 0.37-2.64 1.11-0.68 0.68-1.03 1.53-1.03 2.56 0 2.5 1.23 3.75 3.67 3.75m-8.53 8.54c1.08 0 1.96-0.37 2.65-1.11 0.74-0.69 1.11-1.57 1.11-2.65 0-2.45-1.26-3.67-3.76-3.67-1.02 0-1.9 0.34-2.64 1.03-0.69 0.74-1.03 1.62-1.03 2.64 0 2.5 1.22 3.76 3.67 3.76m8.53-42.67c1.08 0 1.97-0.34 2.65-1.02 0.74-0.74 1.11-1.65 1.11-2.73 0-2.45-1.25-3.67-3.76-3.67-1.02 0-1.9 0.37-2.64 1.11-0.68 0.68-1.03 1.53-1.03 2.56 0 2.5 1.23 3.75 3.67 3.75m0-8.53c1.08 0 1.97-0.34 2.65-1.02 0.74-0.74 1.11-1.65 1.11-2.74 0-2.44-1.25-3.66-3.76-3.66-1.02 0-1.9 0.37-2.64 1.1-0.68 0.69-1.03 1.54-1.03 2.56 0 2.51 1.23 3.76 3.67 3.76m-17.06 51.2c1.08 0 1.96-0.37 2.64-1.11 0.74-0.69 1.11-1.57 1.11-2.65 0-2.45-1.25-3.67-3.75-3.67-1.03 0-1.91 0.34-2.65 1.03-0.68 0.74-1.02 1.62-1.02 2.64 0 2.5 1.22 3.76 3.67 3.76m-17.07-25.6c1.08 0 1.97-0.34 2.65-1.03 0.74-0.74 1.11-1.65 1.11-2.73 0-2.44-1.25-3.67-3.76-3.67-1.02 0-1.9 0.37-2.64 1.11-0.68 0.69-1.03 1.54-1.03 2.56 0 2.51 1.23 3.76 3.67 3.76m0-8.54c1.08 0 1.97-0.34 2.65-1.02 0.74-0.74 1.11-1.65 1.11-2.73 0-2.45-1.25-3.67-3.76-3.67-1.02 0-1.9 0.37-2.64 1.11-0.68 0.68-1.03 1.54-1.03 2.56 0 2.5 1.23 3.75 3.67 3.75m34.13 8.54c1.08 0 1.97-0.34 2.65-1.03 0.74-0.74 1.11-1.65 1.11-2.73 0-2.44-1.25-3.67-3.76-3.67-1.02 0-1.9 0.37-2.64 1.11-0.68 0.69-1.03 1.54-1.03 2.56 0 2.51 1.23 3.76 3.67 3.76m0-8.54c1.08 0 1.97-0.34 2.65-1.02 0.74-0.74 1.11-1.65 1.11-2.73 0-2.45-1.25-3.67-3.76-3.67-1.02 0-1.9 0.37-2.64 1.11-0.68 0.68-1.03 1.54-1.03 2.56 0 2.5 1.23 3.75 3.67 3.75m-34.13 17.07c1.08 0 1.97-0.34 2.65-1.02 0.74-0.74 1.11-1.65 1.11-2.73 0-2.45-1.25-3.67-3.76-3.67-1.02 0-1.9 0.37-2.64 1.11-0.68 0.68-1.03 1.53-1.03 2.56 0 2.5 1.23 3.75 3.67 3.75m34.13 0c1.08 0 1.97-0.34 2.65-1.02 0.74-0.74 1.11-1.65 1.11-2.73 0-2.45-1.25-3.67-3.76-3.67-1.02 0-1.9 0.37-2.64 1.11-0.68 0.68-1.03 1.53-1.03 2.56 0 2.5 1.23 3.75 3.67 3.75m-25.59-17.07c1.08 0 1.96-0.34 2.64-1.02 0.74-0.74 1.11-1.65 1.11-2.73 0-2.45-1.25-3.67-3.75-3.67-1.03 0-1.91 0.37-2.65 1.11-0.68 0.68-1.02 1.54-1.02 2.56 0 2.5 1.22 3.75 3.67 3.75m8.53 0c1.08 0 1.96-0.34 2.64-1.02 0.74-0.74 1.11-1.65 1.11-2.73 0-2.45-1.25-3.67-3.75-3.67-1.03 0-1.91 0.37-2.65 1.11-0.68 0.68-1.02 1.54-1.02 2.56 0 2.5 1.22 3.75 3.67 3.75m8.53 0c1.08 0 1.96-0.34 2.65-1.02 0.74-0.74 1.11-1.65 1.11-2.73 0-2.45-1.26-3.67-3.76-3.67-1.02 0-1.9 0.37-2.64 1.11-0.69 0.68-1.03 1.54-1.03 2.56 0 2.5 1.22 3.75 3.67 3.75" />
      <path
         id="text3571"
         style="fill:#000000"
         d="m484.02 563.34c1.08 0 1.96-0.34 2.65-1.03 0.73-0.74 1.1-1.65 1.1-2.73 0-2.44-1.25-3.67-3.75-3.67-1.02 0-1.91 0.37-2.64 1.11-0.69 0.69-1.03 1.54-1.03 2.56 0 2.51 1.22 3.76 3.67 3.76m-8.53 51.19c1.08 0 1.96-0.34 2.64-1.02 0.74-0.74 1.11-1.65 1.11-2.73 0-2.45-1.25-3.67-3.75-3.67-1.03 0-1.91 0.37-2.65 1.11-0.68 0.68-1.02 1.54-1.02 2.56 0 2.5 1.22 3.75 3.67 3.75m17.06-51.19c1.08 0 1.97-0.34 2.65-1.03 0.74-0.74 1.11-1.65 1.11-2.73 0-2.44-1.25-3.67-3.76-3.67-1.02 0-1.9 0.37-2.64 1.11-0.68 0.69-1.03 1.54-1.03 2.56 0 2.51 1.23 3.76 3.67 3.76m-8.53 59.73c1.08 0 1.96-0.37 2.65-1.11 0.73-0.68 1.1-1.57 1.1-2.65 0-2.44-1.25-3.67-3.75-3.67-1.02 0-1.91 0.34-2.64 1.03-0.69 0.74-1.03 1.62-1.03 2.64 0 2.51 1.22 3.76 3.67 3.76m-8.53-42.67c1.08 0 1.96-0.34 2.64-1.02 0.74-0.74 1.11-1.65 1.11-2.73 0-2.45-1.25-3.67-3.75-3.67-1.03 0-1.91 0.37-2.65 1.11-0.68 0.68-1.02 1.54-1.02 2.56 0 2.5 1.22 3.75 3.67 3.75m0-8.53c1.08 0 1.96-0.34 2.64-1.02 0.74-0.74 1.11-1.65 1.11-2.73 0-2.45-1.25-3.67-3.75-3.67-1.03 0-1.91 0.37-2.65 1.11-0.68 0.68-1.02 1.53-1.02 2.56 0 2.5 1.22 3.75 3.67 3.75m25.6-8.53c1.08 0 1.96-0.34 2.64-1.03 0.74-0.74 1.11-1.65 1.11-2.73 0-2.44-1.25-3.67-3.75-3.67-1.03 0-1.91 0.37-2.65 1.11-0.68 0.69-1.02 1.54-1.02 2.56 0 2.51 1.22 3.76 3.67 3.76m8.53 51.19c1.08 0 1.96-0.34 2.64-1.02 0.74-0.74 1.11-1.65 1.11-2.73 0-2.45-1.25-3.67-3.75-3.67-1.03 0-1.91 0.37-2.65 1.11-0.68 0.68-1.02 1.54-1.02 2.56 0 2.5 1.22 3.75 3.67 3.75m-8.53 8.54c1.08 0 1.96-0.37 2.64-1.11 0.74-0.68 1.11-1.57 1.11-2.65 0-2.44-1.25-3.67-3.75-3.67-1.03 0-1.91 0.34-2.65 1.03-0.68 0.74-1.02 1.62-1.02 2.64 0 2.51 1.22 3.76 3.67 3.76m8.53-42.67c1.08 0 1.96-0.34 2.64-1.02 0.74-0.74 1.11-1.65 1.11-2.73 0-2.45-1.25-3.67-3.75-3.67-1.03 0-1.91 0.37-2.65 1.11-0.68 0.68-1.02 1.54-1.02 2.56 0 2.5 1.22 3.75 3.67 3.75m0-8.53c1.08 0 1.96-0.34 2.64-1.02 0.74-0.74 1.11-1.65 1.11-2.73 0-2.45-1.25-3.67-3.75-3.67-1.03 0-1.91 0.37-2.65 1.11-0.68 0.68-1.02 1.53-1.02 2.56 0 2.5 1.22 3.75 3.67 3.75m-17.07 51.2c1.08 0 1.97-0.37 2.65-1.11 0.74-0.68 1.11-1.57 1.11-2.65 0-2.44-1.25-3.67-3.76-3.67-1.02 0-1.9 0.34-2.64 1.03-0.68 0.74-1.03 1.62-1.03 2.64 0 2.51 1.23 3.76 3.67 3.76m17.07-25.6c1.08 0 1.96-0.34 2.64-1.03 0.74-0.73 1.11-1.64 1.11-2.73 0-2.44-1.25-3.66-3.75-3.66-1.03 0-1.91 0.37-2.65 1.1-0.68 0.69-1.02 1.54-1.02 2.56 0 2.51 1.22 3.76 3.67 3.76m0-8.53c1.08 0 1.96-0.35 2.64-1.03 0.74-0.74 1.11-1.65 1.11-2.73 0-2.44-1.25-3.67-3.75-3.67-1.03 0-1.91 0.37-2.65 1.11-0.68 0.68-1.02 1.54-1.02 2.56 0 2.5 1.22 3.76 3.67 3.76m0 17.06c1.08 0 1.96-0.34 2.64-1.02 0.74-0.74 1.11-1.65 1.11-2.73 0-2.45-1.25-3.67-3.75-3.67-1.03 0-1.91 0.37-2.65 1.11-0.68 0.68-1.02 1.53-1.02 2.56 0 2.5 1.22 3.75 3.67 3.75m-25.6-17.06c1.08 0 1.96-0.35 2.65-1.03 0.73-0.74 1.1-1.65 1.1-2.73 0-2.44-1.25-3.67-3.75-3.67-1.02 0-1.91 0.37-2.64 1.11-0.69 0.68-1.03 1.54-1.03 2.56 0 2.5 1.22 3.76 3.67 3.76m8.53 0c1.08 0 1.97-0.35 2.65-1.03 0.74-0.74 1.11-1.65 1.11-2.73 0-2.44-1.25-3.67-3.76-3.67-1.02 0-1.9 0.37-2.64 1.11-0.68 0.68-1.03 1.54-1.03 2.56 0 2.5 1.23 3.76 3.67 3.76m8.54 0c1.08 0 1.96-0.35 2.64-1.03 0.74-0.74 1.11-1.65 1.11-2.73 0-2.44-1.25-3.67-3.75-3.67-1.03 0-1.91 0.37-2.65 1.11-0.68 0.68-1.02 1.54-1.02 2.56 0 2.5 1.22 3.76 3.67 3.76" />
      <g
         id="g3957"
         transform="matrix(3.5553 0 0 3.5553 -689.13 -578.07)">
        <path
           id="path3903"
           style="stroke:#000000;stroke-width:.69216px;fill:none"
           d="m321.8 171.02l-2.68 12.35" />
        <path
           id="path3905"
           style="stroke:#000000;stroke-width:.69216px;fill:none"
           d="m271.54 171.31l2.58 12.37" />
        <path
           id="path3907"
           style="stroke:#000000;stroke-width:.69216px;fill:none"
           d="m226.69 197.8l8.92 8.95" />
        <path
           id="path3909"
           style="stroke:#000000;stroke-width:.69216px;fill:none"
           d="m203.21 237.54l11.99 4.01" />
        <path
           id="path3911"
           style="stroke:#000000;stroke-width:.69216px;fill:none"
           d="m212.6 280.02l-12.53 1.6" />
        <path
           id="path3913"
           style="stroke:#000000;stroke-width:.77118px;fill:none"
           d="m370.03 198.16l-9.54 10.32" />
        <path
           id="path3915"
           style="stroke:#000000;stroke-width:.70662px;fill:none"
           d="m395.51 248.07l-14.25 2.75" />
        <path
           id="path3917"
           style="stroke:#000000;stroke-width:.69975px;fill:none"
           d="m392.06 297.85l-13.52-5.31" />
        <path
           id="path3919"
           style="stroke:#000000;stroke-width:.69322px;fill:none"
           d="m357.66 326.59l9.24 11.94" />
        <path
           id="path3921"
           style="stroke:#000000;stroke-width:.32154px;fill:none"
           d="m364.42 319.24l9.94 8.15" />
        <path
           id="path3923"
           style="stroke:#000000;stroke-width:.33857px;fill:none"
           d="m349.77 333.62l7.1 10.6" />
        <path
           id="path3925"
           style="stroke:#000000;stroke-width:.34956px;fill:none"
           d="m375.11 301.6l11.53 5.62" />
        <path
           id="path3927"
           style="stroke:#000000;stroke-width:.33009px;fill:none"
           d="m380.96 283.48l12.79 2.33" />
        <path
           id="path3929"
           style="stroke:#000000;stroke-width:.32983px;fill:none"
           d="m395.55 261.31l-12.89 0.73" />
        <path
           id="path3931"
           style="stroke:#000000;stroke-width:.32031px;fill:none"
           d="m389.9 233.56l-11.61 5.17" />
        <path
           id="path3933"
           style="stroke:#000000;stroke-width:.31231px;fill:none"
           d="m376.54 208.7l-9.47 8.09" />
        <path
           id="path3935"
           style="stroke:#000000;stroke-width:.29992px;fill:none"
           d="m357.22 189.3l-6.76 9.92" />
        <path
           id="path3937"
           style="stroke:#000000;stroke-width:.29199px;fill:none"
           d="m332.48 175.61l-3.7 11.02" />
        <path
           id="path3939"
           style="stroke:#000000;stroke-width:.26269px;fill:none"
           d="m309.03 170.17l-0.86 11.12" />
        <path
           id="path3941"
           style="stroke:#000000;stroke-width:.26583px;fill:none"
           d="m284.14 170.65l1.07 10.82" />
        <path
           id="path3943"
           style="stroke:#000000;stroke-width:.30147px;fill:none"
           d="m260.56 177.34l3.32 9.92" />
        <path
           id="path3945"
           style="stroke:#000000;stroke-width:.29859px;fill:none"
           d="m237.5 191.26l5.86 8.27" />
        <path
           id="path3947"
           style="stroke:#000000;stroke-width:.34093px;fill:none"
           d="m221.28 208.15l7.48 6.55" />
        <path
           id="path3949"
           style="stroke:#000000;stroke-width:.31546px;fill:none"
           d="m209.51 228.35l8.8 4.44" />
        <path
           id="path3951"
           style="stroke:#000000;stroke-width:.35472px;fill:none"
           d="m203.25 249.14l9.69 1.53" />
        <path
           id="path3953"
           style="stroke:#000000;stroke-width:.30770px;fill:none"
           d="m201.6 270.95l10.06-0.68" />
        <path
           id="path3955"
           style="stroke:#000000;stroke-width:.31345px;fill:none"
           d="m205.14 292.81l9.69-3.37" />
      </g>
    </g>
    <path
       sodipodi:nodetypes="cssscsssssssssscssscc"
       inkscape:connector-curvature="0"
       id="path15620"
       d="m 586.0007,434.87182 c -1.87524,1.54864 -4.17767,5.63934 -5.82476,1.70799 -0.96653,-2.28888 -2.23175,-2.70816 -4.47981,-2.26972 -5.16535,1.01209 -10.08922,1.98476 -15.06703,1.86219 -1.62861,-0.0482 -3.06746,-0.78331 -3.96571,-4.34802 l -20.50656,-2.5176 c -25.99006,-3.17734 -52.58429,-1.72314 -78.96018,2.20051 -35.24358,5.2403 -69.49596,8.47697 -109.197,0.89128 L 148.82852,394.34271 c -2.65235,-0.50678 -4.2162,-6.71053 -3.32223,-11.38929 L 165.0236,280.80628 c 0.89458,-4.68192 4.63487,-9.86895 7.28721,-9.36216 l 199.17114,38.05573 c 39.70103,7.5857 70.34723,23.22262 101.17611,41.0874 23.07128,13.37157 47.2561,24.52748 72.58661,31.15666 l 19.99018,5.22015 c 2.16497,-3.06486 3.75897,-3.14171 5.28939,-2.5797 4.64294,1.72226 8.91332,4.44516 13.31909,7.28597 1.92441,1.25544 3.25873,1.31308 4.99862,-0.44555 2.98168,-3.05346 3.55856,1.58083 4.78472,3.73519 z"
       style="opacity:1;fill:#008000;fill-opacity:1;fill-rule:nonzero;stroke:none;stroke-width:0.50661939;stroke-linecap:round;stroke-linejoin:round;stroke-miterlimit:4;stroke-dasharray:none;stroke-dashoffset:0;stroke-opacity:1" />
    <path
       style="opacity:1;fill:#008000;fill-opacity:0.50549454;fill-rule:nonzero;stroke:none;stroke-width:0.50661939;stroke-linecap:round;stroke-linejoin:round;stroke-miterlimit:4;stroke-dasharray:none;stroke-dashoffset:0;stroke-opacity:1"
       d="m 605.54918,337.35742 c -1.065,2.18646 -1.46544,6.8635 -4.59347,3.96801 -1.82808,-1.68264 -3.1533,-1.53998 -5.01762,-0.20945 -4.28169,3.06144 -8.35993,5.98693 -12.94109,7.93798 -1.50219,0.63097 -3.1163,0.55814 -5.41089,-2.31395 l -19.70647,6.20579 c -24.97046,7.87751 -48.57165,20.22058 -70.95089,34.72066 -29.90428,19.37279 -59.73666,36.51135 -99.01231,46.05804 l -197.03702,47.89353 c -2.62392,0.6378 -6.61779,-4.36032 -7.74287,-8.98895 L 158.57382,371.57645 c -1.12583,-4.63175 0.12896,-10.90237 2.75287,-11.54016 l 197.03704,-47.89354 c 39.27563,-9.54667 73.64645,-8.01386 109.10666,-4.52915 26.53813,2.60982 53.17161,2.74173 78.9721,-1.72091 l 20.35635,-3.53221 c 0.69998,-3.68653 2.11929,-4.41687 3.74502,-4.53953 4.93923,-0.35639 9.95403,0.35228 15.14089,1.11216 2.27163,0.34522 3.5099,-0.15524 4.3647,-2.47672 1.44842,-4.01449 3.89372,-0.0358 5.90234,1.41684 z"
       id="path6019"
       inkscape:connector-curvature="0"
       sodipodi:nodetypes="cssscsssssssssscssscc" />
    <path
       sodipodi:nodetypes="cssscsssssssssscssscc"
       inkscape:connector-curvature="0"
       id="path6021"
       d="m 562.32975,251.14955 c -0.0667,2.43113 1.50051,6.85592 -2.54422,5.51108 -2.35986,-0.7773 -3.50783,-0.0999 -4.65607,1.88187 -2.63475,4.55667 -5.14038,8.90551 -8.50653,12.57466 -1.10741,1.19512 -2.60747,1.79553 -5.88352,0.12774 l -15.38329,13.79171 c -19.48668,17.48853 -35.88177,38.47825 -50.27305,60.92761 -19.23158,29.99529 -39.32057,57.92616 -71.1455,82.84382 L 244.27909,553.81422 c -2.12615,1.6647 -7.82793,-1.23734 -10.76448,-4.98791 l -64.11082,-81.88263 c -2.93852,-3.7531 -4.38596,-9.98206 -2.25981,-11.64675 l 159.65849,-125.0062 c 31.82492,-24.91764 63.7596,-37.71916 97.49266,-49.19309 25.24631,-8.58526 49.55593,-19.46654 71.20908,-34.18801 l 17.0795,-11.62533 c -0.88531,-3.64645 0.10557,-4.89785 1.53545,-5.68109 4.35096,-2.3648 9.21066,-3.79086 14.24822,-5.24136 2.21138,-0.62394 3.13235,-1.5912 2.95188,-4.05847 -0.33917,-4.25429 3.53123,-1.64097 5.96052,-1.14775 z"
       style="opacity:1;fill:#008000;fill-opacity:0.27472528;fill-rule:nonzero;stroke:none;stroke-width:0.50661939;stroke-linecap:round;stroke-linejoin:round;stroke-miterlimit:4;stroke-dasharray:none;stroke-dashoffset:0;stroke-opacity:1" />
  </g>
  <metadata
     id="metadata5420">
    <rdf:RDF>
      <cc:Work>
        <dc:format>image/svg+xml</dc:format>
        <dc:type
           rdf:resource="http://purl.org/dc/dcmitype/StillImage" />
        <cc:license
           rdf:resource="http://creativecommons.org/licenses/publicdomain/" />
        <dc:publisher>
          <cc:Agent
             rdf:about="http://openclipart.org/">
            <dc:title>Openclipart</dc:title>
          </cc:Agent>
        </dc:publisher>
        <dc:title></dc:title>
        <dc:date>2007-03-03T20:35:06</dc:date>
        <dc:description>This is a tachometer I worked up in Inkscape 0.44 from scratch. If you open it up in Inkscape and click on the needle twice (for rotating), I have it set up so you can spin it to any point on the dial. Feel free to use it for whatever you need it for! FYI - The font for the numbers is Bazaronite ... the text at the bottom is Adventure. I've never seen either font on Windows, so you may have to change them to something you have on your system. ** Not sure if it's a Firefox thing, but if I open the files in FF, they don't render quite right. Best bet is to open in Inkscape or your SVG app.</dc:description>
        <dc:source>https://openclipart.org/detail/3402/tachometer-by-digitalink-3402</dc:source>
        <dc:creator>
          <cc:Agent>
            <dc:title>DigitaLink</dc:title>
          </cc:Agent>
        </dc:creator>
        <dc:subject>
          <rdf:Bag>
            <rdf:li>car</rdf:li>
            <rdf:li>gauge</rdf:li>
            <rdf:li>gauges</rdf:li>
            <rdf:li>performance</rdf:li>
            <rdf:li>speed</rdf:li>
            <rdf:li>tach</rdf:li>
            <rdf:li>tachometer</rdf:li>
            <rdf:li>vehicle</rdf:li>
          </rdf:Bag>
        </dc:subject>
      </cc:Work>
      <cc:License
         rdf:about="http://creativecommons.org/licenses/publicdomain/">
        <cc:permits
           rdf:resource="http://creativecommons.org/ns#Reproduction" />
        <cc:permits
           rdf:resource="http://creativecommons.org/ns#Distribution" />
        <cc:permits
           rdf:resource="http://creativecommons.org/ns#DerivativeWorks" />
      </cc:License>
    </rdf:RDF>
  </metadata>
</svg>
